<svg xmlns="http://www.w3.org/2000/svg"
     width="289"
     height="131"
     fill="none"
     viewBox="0 0 289 131">
  <g clip-path="url(#a)">
    <path fill="#000"
          d="M36.563 20.313V130h18.28v-22.344a2.03 2.03 0 0 1 2.032-2.031h16.25a2.03 2.03 0 0 1 2.031 2.031V130h18.281V8.125A8.12 8.12 0 0 0 85.314 0H44.687a8.12 8.12 0 0 0-8.124 8.125v12.188Zm32.5-2.032a2.03 2.03 0 0 1 2.03-2.031h8.126a2.03 2.03 0 0 1 2.031 2.031v8.125a2.03 2.03 0 0 1-2.031 2.032h-8.125a2.03 2.03 0 0 1-2.031-2.032v-8.125Zm0 20.313a2.03 2.03 0 0 1 2.03-2.032h8.126a2.03 2.03 0 0 1 2.031 2.032v8.125a2.03 2.03 0 0 1-2.031 2.031h-8.125a2.03 2.03 0 0 1-2.031-2.031v-8.125Zm0 20.312a2.03 2.03 0 0 1 2.03-2.031h8.126a2.03 2.03 0 0 1 2.031 2.031v8.125a2.03 2.03 0 0 1-2.031 2.031h-8.125a2.03 2.03 0 0 1-2.031-2.03v-8.126Zm0 20.313a2.03 2.03 0 0 1 2.03-2.031h8.126a2.03 2.03 0 0 1 2.031 2.03v8.126a2.03 2.03 0 0 1-2.031 2.031h-8.125a2.03 2.03 0 0 1-2.031-2.031v-8.125ZM48.75 18.28a2.03 2.03 0 0 1 2.031-2.031h8.125a2.03 2.03 0 0 1 2.032 2.031v8.125a2.03 2.03 0 0 1-2.032 2.032h-8.125a2.03 2.03 0 0 1-2.031-2.032V18.28Zm0 20.313a2.03 2.03 0 0 1 2.031-2.032h8.125a2.03 2.03 0 0 1 2.032 2.032v8.125a2.03 2.03 0 0 1-2.032 2.031h-8.125a2.03 2.03 0 0 1-2.031-2.031v-8.125Zm0 20.312a2.03 2.03 0 0 1 2.031-2.031h8.125a2.03 2.03 0 0 1 2.032 2.031v8.125a2.03 2.03 0 0 1-2.032 2.031h-8.125a2.03 2.03 0 0 1-2.031-2.03v-8.126Zm0 20.313a2.03 2.03 0 0 1 2.031-2.031h8.125a2.03 2.03 0 0 1 2.032 2.03v8.126a2.03 2.03 0 0 1-2.032 2.031h-8.125a2.03 2.03 0 0 1-2.031-2.031v-8.125Zm-28.437 22.344H16.25v4.063h4.063v-4.063Z" />
    <path fill="#000"
          d="M56.875 60.938h-4.063V65h4.063v-4.063Zm0 20.312h-4.063v4.063h4.063V81.25Z" />
    <path fill="#000"
          d="M36.563 20.313V130h18.28v-22.344a2.03 2.03 0 0 1 2.032-2.031h16.25a2.03 2.03 0 0 1 2.031 2.031V130h18.281V8.125A8.12 8.12 0 0 0 85.314 0H44.687a8.12 8.12 0 0 0-8.124 8.125v12.188Zm32.5-2.032a2.03 2.03 0 0 1 2.03-2.031h8.126a2.03 2.03 0 0 1 2.031 2.031v8.125a2.03 2.03 0 0 1-2.031 2.032h-8.125a2.03 2.03 0 0 1-2.031-2.032v-8.125Zm0 20.313a2.03 2.03 0 0 1 2.03-2.032h8.126a2.03 2.03 0 0 1 2.031 2.032v8.125a2.03 2.03 0 0 1-2.031 2.031h-8.125a2.03 2.03 0 0 1-2.031-2.031v-8.125Zm0 20.312a2.03 2.03 0 0 1 2.03-2.031h8.126a2.03 2.03 0 0 1 2.031 2.031v8.125a2.03 2.03 0 0 1-2.031 2.031h-8.125a2.03 2.03 0 0 1-2.031-2.03v-8.126Zm0 20.313a2.03 2.03 0 0 1 2.03-2.031h8.126a2.03 2.03 0 0 1 2.031 2.03v8.126a2.03 2.03 0 0 1-2.031 2.031h-8.125a2.03 2.03 0 0 1-2.031-2.031v-8.125ZM48.75 18.28a2.03 2.03 0 0 1 2.031-2.031h8.125a2.03 2.03 0 0 1 2.032 2.031v8.125a2.03 2.03 0 0 1-2.032 2.032h-8.125a2.03 2.03 0 0 1-2.031-2.032V18.28Zm0 20.313a2.03 2.03 0 0 1 2.031-2.032h8.125a2.03 2.03 0 0 1 2.032 2.032v8.125a2.03 2.03 0 0 1-2.032 2.031h-8.125a2.03 2.03 0 0 1-2.031-2.031v-8.125Zm0 20.312a2.03 2.03 0 0 1 2.031-2.031h8.125a2.03 2.03 0 0 1 2.032 2.031v8.125a2.03 2.03 0 0 1-2.032 2.031h-8.125a2.03 2.03 0 0 1-2.031-2.03v-8.126Zm0 20.313a2.03 2.03 0 0 1 2.031-2.031h8.125a2.03 2.03 0 0 1 2.032 2.03v8.126a2.03 2.03 0 0 1-2.032 2.031h-8.125a2.03 2.03 0 0 1-2.031-2.031v-8.125Z" />
    <path fill="#000"
          d="M71.094 109.688H58.906V130h12.188v-20.312ZM56.875 20.313h-4.063v4.062h4.063v-4.063Zm0 20.312h-4.063v4.063h4.063v-4.063Zm20.313 0h-4.063v4.063h4.063v-4.063Zm0-20.312h-4.063v4.062h4.063v-4.063Zm0 40.625h-4.063V65h4.063v-4.063Zm0 20.312h-4.063v4.063h4.063V81.25Zm-56.875 0H16.25v4.063h4.063V81.25Z" />
    <path fill="#000"
          d="M32.5 20.313H8.125A8.12 8.12 0 0 0 0 28.438v93.437A8.12 8.12 0 0 0 8.125 130H32.5V20.312Zm-8.125 87.343a2.03 2.03 0 0 1-2.031 2.032h-8.125a2.03 2.03 0 0 1-2.031-2.032v-8.125a2.03 2.03 0 0 1 2.03-2.031h8.126a2.03 2.03 0 0 1 2.031 2.031v8.125Zm0-20.312a2.03 2.03 0 0 1-2.031 2.031h-8.125a2.03 2.03 0 0 1-2.031-2.031v-8.125a2.03 2.03 0 0 1 2.03-2.031h8.126a2.03 2.03 0 0 1 2.031 2.03v8.126Zm0-20.313a2.03 2.03 0 0 1-2.031 2.031h-8.125a2.03 2.03 0 0 1-2.031-2.03v-8.126a2.03 2.03 0 0 1 2.03-2.031h8.126a2.03 2.03 0 0 1 2.031 2.031v8.125ZM22.344 48.75h-8.125a2.03 2.03 0 0 1-2.031-2.031v-8.125a2.03 2.03 0 0 1 2.03-2.032h8.126a2.03 2.03 0 0 1 2.031 2.032v8.125a2.03 2.03 0 0 1-2.031 2.031Zm91.406 52.812h-4.062v4.063h4.062v-4.063Zm0-20.312h-4.062v4.063h4.062V81.25Zm0-20.312h-4.062V65h4.062v-4.063Z" />
    <path fill="#000"
          d="M121.875 40.625H97.5V130h24.375a8.12 8.12 0 0 0 8.125-8.125V48.75a8.12 8.12 0 0 0-8.125-8.125Zm-4.063 67.031a2.029 2.029 0 0 1-2.031 2.032h-8.125a2.03 2.03 0 0 1-2.031-2.032v-8.125a2.03 2.03 0 0 1 2.031-2.031h8.125c1.124 0 2.031.908 2.031 2.031v8.125Zm0-20.312a2.029 2.029 0 0 1-2.031 2.031h-8.125a2.03 2.03 0 0 1-2.031-2.031v-8.125a2.03 2.03 0 0 1 2.031-2.031h8.125c1.124 0 2.031.907 2.031 2.03v8.126Zm0-20.313a2.029 2.029 0 0 1-2.031 2.031h-8.125a2.03 2.03 0 0 1-2.031-2.03v-8.126a2.03 2.03 0 0 1 2.031-2.031h8.125c1.124 0 2.031.908 2.031 2.031v8.125Zm-97.499-6.093H16.25V65h4.063v-4.063Zm0-20.313H16.25v4.063h4.063v-4.063Z" />
  </g>
  <path fill="#000"
        d="M272.25 103.938h-4.062V108h4.062v-4.062Zm0-20.313h-4.062v4.063h4.062v-4.063Zm0-20.312h-4.062v4.062h4.062v-4.063Z" />
  <path fill="#000"
        d="M280.375 41H256v89.375h24.375a8.12 8.12 0 0 0 8.125-8.125V49.125A8.12 8.12 0 0 0 280.375 41Zm-4.063 67.031a2.028 2.028 0 0 1-2.031 2.031h-8.125a2.029 2.029 0 0 1-2.031-2.031v-8.125a2.03 2.03 0 0 1 2.031-2.031h8.125c1.124 0 2.031.908 2.031 2.031v8.125Zm0-20.312a2.029 2.029 0 0 1-2.031 2.031h-8.125a2.03 2.03 0 0 1-2.031-2.031v-8.125a2.03 2.03 0 0 1 2.031-2.031h8.125c1.124 0 2.031.907 2.031 2.03v8.126Zm0-20.313a2.029 2.029 0 0 1-2.031 2.031h-8.125a2.03 2.03 0 0 1-2.031-2.03V59.28a2.03 2.03 0 0 1 2.031-2.031h8.125c1.124 0 2.031.908 2.031 2.031v8.125Zm-61-6.468h-4.062V65h4.062v-4.063Zm0 20.312h-4.062v4.063h4.062V81.25Z" />
  <path fill="#000"
        d="M195 20.313V130h18.281v-22.344a2.03 2.03 0 0 1 2.031-2.031h16.25a2.03 2.03 0 0 1 2.032 2.031V130h18.281V8.125A8.12 8.12 0 0 0 243.75 0h-40.625A8.12 8.12 0 0 0 195 8.125v12.188Zm32.5-2.032a2.03 2.03 0 0 1 2.031-2.031h8.125a2.03 2.03 0 0 1 2.032 2.031v8.125a2.03 2.03 0 0 1-2.032 2.032h-8.125a2.03 2.03 0 0 1-2.031-2.032v-8.125Zm0 20.313a2.03 2.03 0 0 1 2.031-2.032h8.125a2.03 2.03 0 0 1 2.032 2.032v8.125a2.03 2.03 0 0 1-2.032 2.031h-8.125a2.03 2.03 0 0 1-2.031-2.031v-8.125Zm0 20.312a2.03 2.03 0 0 1 2.031-2.031h8.125a2.03 2.03 0 0 1 2.032 2.031v8.125a2.03 2.03 0 0 1-2.032 2.031h-8.125a2.03 2.03 0 0 1-2.031-2.03v-8.126Zm0 20.313a2.03 2.03 0 0 1 2.031-2.031h8.125a2.03 2.03 0 0 1 2.032 2.03v8.126a2.03 2.03 0 0 1-2.032 2.031h-8.125a2.03 2.03 0 0 1-2.031-2.031v-8.125ZM207.188 18.28c0-1.123.907-2.031 2.031-2.031h8.125a2.03 2.03 0 0 1 2.031 2.031v8.125a2.03 2.03 0 0 1-2.031 2.032h-8.125a2.029 2.029 0 0 1-2.031-2.032V18.28Zm0 20.313a2.03 2.03 0 0 1 2.031-2.032h8.125a2.03 2.03 0 0 1 2.031 2.032v8.125a2.03 2.03 0 0 1-2.031 2.031h-8.125a2.029 2.029 0 0 1-2.031-2.031v-8.125Zm0 20.312c0-1.123.907-2.031 2.031-2.031h8.125a2.03 2.03 0 0 1 2.031 2.031v8.125a2.03 2.03 0 0 1-2.031 2.031h-8.125a2.029 2.029 0 0 1-2.031-2.03v-8.126Zm0 20.313c0-1.123.907-2.031 2.031-2.031h8.125a2.03 2.03 0 0 1 2.031 2.03v8.126a2.03 2.03 0 0 1-2.031 2.031h-8.125a2.029 2.029 0 0 1-2.031-2.031v-8.125Z" />
  <path fill="#000"
        d="M229.531 109.688h-12.187V130h12.187v-20.312Zm-14.219-89.375h-4.062v4.062h4.062v-4.063Zm0 20.312h-4.062v4.063h4.062v-4.063Zm20.313 0h-4.063v4.063h4.063v-4.063Zm0-20.312h-4.063v4.062h4.063v-4.063Zm0 40.625h-4.063V65h4.063v-4.063Zm0 20.312h-4.063v4.063h4.063V81.25Zm-81.313-20.312h-4.062V65h4.062v-4.063Zm0 20.312h-4.062v4.063h4.062V81.25Z" />
  <path fill="#000"
        d="M134 20.313V130h18.281v-22.344a2.03 2.03 0 0 1 2.031-2.031h16.25a2.03 2.03 0 0 1 2.032 2.031V130h18.281V8.125A8.12 8.12 0 0 0 182.75 0h-40.625A8.12 8.12 0 0 0 134 8.125v12.188Zm32.5-2.032a2.03 2.03 0 0 1 2.031-2.031h8.125a2.03 2.03 0 0 1 2.032 2.031v8.125a2.03 2.03 0 0 1-2.032 2.032h-8.125a2.03 2.03 0 0 1-2.031-2.032v-8.125Zm0 20.313a2.03 2.03 0 0 1 2.031-2.032h8.125a2.03 2.03 0 0 1 2.032 2.032v8.125a2.03 2.03 0 0 1-2.032 2.031h-8.125a2.03 2.03 0 0 1-2.031-2.031v-8.125Zm0 20.312a2.03 2.03 0 0 1 2.031-2.031h8.125a2.03 2.03 0 0 1 2.032 2.031v8.125a2.03 2.03 0 0 1-2.032 2.031h-8.125a2.03 2.03 0 0 1-2.031-2.03v-8.126Zm0 20.313a2.03 2.03 0 0 1 2.031-2.031h8.125a2.03 2.03 0 0 1 2.032 2.03v8.126a2.03 2.03 0 0 1-2.032 2.031h-8.125a2.03 2.03 0 0 1-2.031-2.031v-8.125ZM146.188 18.28c0-1.123.907-2.031 2.031-2.031h8.125a2.03 2.03 0 0 1 2.031 2.031v8.125a2.03 2.03 0 0 1-2.031 2.032h-8.125a2.029 2.029 0 0 1-2.031-2.032V18.28Zm0 20.313a2.03 2.03 0 0 1 2.031-2.032h8.125a2.03 2.03 0 0 1 2.031 2.032v8.125a2.03 2.03 0 0 1-2.031 2.031h-8.125a2.029 2.029 0 0 1-2.031-2.031v-8.125Zm0 20.312c0-1.123.907-2.031 2.031-2.031h8.125a2.03 2.03 0 0 1 2.031 2.031v8.125a2.03 2.03 0 0 1-2.031 2.031h-8.125a2.029 2.029 0 0 1-2.031-2.03v-8.126Zm0 20.313c0-1.123.907-2.031 2.031-2.031h8.125a2.03 2.03 0 0 1 2.031 2.03v8.126a2.03 2.03 0 0 1-2.031 2.031h-8.125a2.029 2.029 0 0 1-2.031-2.031v-8.125Z" />
  <path fill="#000"
        d="M168.531 109.688h-12.187V130h12.187v-20.312Zm-14.219-89.375h-4.062v4.062h4.062v-4.063Zm0 20.312h-4.062v4.063h4.062v-4.063Zm20.313 0h-4.063v4.063h4.063v-4.063Zm0-20.312h-4.063v4.062h4.063v-4.063Zm0 40.625h-4.063V65h4.063v-4.063Zm0 20.312h-4.063v4.063h4.063V81.25Z" />
  <defs>
    <clipPath id="a">
      <path fill="#fff"
            d="M0 0h130v130H0z" />
    </clipPath>
  </defs>
</svg>
