<svg xmlns="http://www.w3.org/2000/svg"
     width="397"
     height="65"
     fill="none"
     viewBox="0 0 397 65">
  <g clip-path="url(#a)">
    <path fill="#000"
          d="M325 34h-6v6h6v-6Zm26 0h-6v6h6v-6Z" />
    <path fill="#000"
          d="M366.211 29.789 337.438 1.015S336.501 0 335.008 0s-2.376.991-2.376.991L323 10.604V5a1 1 0 0 0-1-1h-6a1 1 0 0 0-1 1v13.589l-11.217 11.194c-.543.543-.783 1.389-.783 2.217a3 3 0 0 0 3 3c.828 0 1.662-.251 2.205-.794l.795-.795V60c0 2.211 1.789 4 4 4h44c2.211 0 4-1.789 4-4V33.394l.804.804c.543.541 1.368.802 2.196.802a3 3 0 0 0 3-3c0-.829-.246-1.668-.789-2.211ZM327 41a1 1 0 0 1-1 1h-8a1 1 0 0 1-1-1v-8a1 1 0 0 1 1-1h8a1 1 0 0 1 1 1v8Zm14 21.002h-12v-15a1 1 0 0 1 1-1h10a1 1 0 0 1 1 1v15ZM353 41a1 1 0 0 1-1 1h-8a1 1 0 0 1-1-1v-8a1 1 0 0 1 1-1h8a1 1 0 0 1 1 1v8Zm11-8c-.276 0-.602-.036-.782-.217L335.716 5.281a.997.997 0 0 0-1.414 0l-27.511 27.512c-.181.181-.515.207-.791.207a1 1 0 0 1-1-1c0-.276.016-.622.197-.803L334.035 2.41s.373-.41.974-.41.982.398.982.398l28.806 28.805c.181.181.203.521.203.797a1 1 0 0 1-1 1Z" />
  </g>
  <path fill="#000"
        d="M389.235 48.01a.373.373 0 0 0 .53 0 .374.374 0 0 0 0-.53l-.75-.75a.374.374 0 1 0-.53.53l.75.75Zm0 1.876a.374.374 0 0 0 .53 0 .374.374 0 0 0 0-.53l-2.625-2.626a.374.374 0 1 0-.53.53l2.625 2.626Zm-12.11 7.984a.75.75 0 1 0 0-1.5.75.75 0 0 0 0 1.5Z" />
  <path fill="#000"
        d="M395.118 53.029c.001-.012.007-.022.007-.034 0-1.074-.221-10.5-7.875-10.5h-4.5c-5.005 0-7.875 3.828-7.875 10.5 0 .012.006.022.007.034A2.252 2.252 0 0 0 373 55.245v3.75a2.252 2.252 0 0 0 2.25 2.25v1.876c0 .207.168.374.375.374h3a.375.375 0 0 0 .375-.374v-1.876h12v1.876c0 .207.168.374.375.374h3a.375.375 0 0 0 .375-.374v-1.876a2.252 2.252 0 0 0 2.25-2.25v-3.75a2.25 2.25 0 0 0-1.882-2.216Zm-16.868 9.716H376v-1.5h2.25v1.5Zm-1.125-4.124a1.501 1.501 0 1 1 1.5-1.5c0 .827-.673 1.5-1.5 1.5Zm12-.376h-8.25a.375.375 0 1 1 0-.75h8.25a.375.375 0 1 1 0 .75Zm-9.375-5.25a2.25 2.25 0 0 1 4.5 0h-4.5Zm9.375 3.75h-8.25a.375.375 0 1 1 0-.75h8.25a.375.375 0 1 1 0 .75ZM385 52.995a3 3 0 1 0-6 0h-1.875c0-6.819 3.263-8.25 6-8.25h3.75c2.378 0 4.091 1.186 5.093 3.523.841 1.965.907 4.115.907 4.727H385Zm9 9.75h-2.25v-1.5H394v1.5Zm-1.125-4.124a1.501 1.501 0 1 1 1.5-1.5c0 .827-.673 1.5-1.5 1.5Z" />
  <path fill="#000"
        d="M392.875 57.87a.75.75 0 1 0 0-1.5.75.75 0 0 0 0 1.5ZM286.087 47.126a2.063 2.063 0 1 0 0-4.125 2.063 2.063 0 0 0 0 4.125Zm1.332.444a.791.791 0 0 0-.223-.09 2.371 2.371 0 0 0-.594-.234l-.514.517-.498-.523-.005.001a2.386 2.386 0 0 0-.751.326.774.774 0 0 0-.127.061c-1.565.96-2.483 2.948-3.646 5.465a.8.8 0 0 0 .121.859c-.632.55-2.196-.365-2.327-.397l-.328.33-.319-.334h-.003c-.224.054-.845.466-1.065.596-.021.009-.042.016-.062.028-.046.026-1.141.672-1.141 2.563a.469.469 0 1 0 .937 0c0-.625.147-1.046.303-1.32v.666l-.517 2.95h.584l.001 3.361a.605.605 0 1 0 1.21 0l-.001-3.36h.087l-.001 3.36a.605.605 0 0 0 1.21 0l.001-3.36h.669l-.544-2.96v-.869c.19.07.391.114.606.114.449 0 .957-.193 1.542-.752a.511.511 0 0 0 .152-.44.791.791 0 0 0 .339-.364c.519-1.123.985-2.13 1.461-2.946v1.341l-1.139 7.171s.494.167 1.245.32v2.341a.946.946 0 1 0 1.893 0v-2.099c.044.003.089.005.134.006v2.093a.947.947 0 0 0 1.893 0v-2.238c.435-.09.859-.226 1.255-.423l-1.058-6.907v-1.738c.237.627.333 1.467.213 2.664a.801.801 0 0 0 1.594.16c.36-3.604-1.03-4.984-2.587-5.939Z" />
  <path fill="#000"
        d="M278.526 53.478a1.318 1.318 0 1 0 0-2.636 1.318 1.318 0 0 0 0 2.636ZM90.317 61.504a1.072 1.072 0 0 1-.36-2.08c1.45-.52 2.972-1.332 3.226-1.722.366-1.19 1.567-3.944 1.619-4.062a1.071 1.071 0 1 1 1.963.858c-.34.778-1.279 2.986-1.54 3.857-.43 1.428-3.034 2.546-4.548 3.086-.12.043-.24.063-.36.063Z" />
  <path fill="#000"
        d="M98.856 63a1.07 1.07 0 0 1-1.002-1.45c.462-1.225.96-2.732 1.097-3.388-.46-.44-1.571-1.359-2.52-2.1a1.071 1.071 0 1 1 1.318-1.689c2.902 2.266 3.136 2.715 3.236 2.906.199.382.447.858-1.127 5.028a1.072 1.072 0 0 1-1.002.693Zm1.787-15.33a2.335 2.335 0 1 0 0-4.671 2.335 2.335 0 0 0 0 4.67Z" />
  <path fill="#000"
        d="M99.227 47.425s.255.032.492.142c.227.105.459.27.459.27l.006.004c.642.491 1.151 1.413.766 2.293l-2.067 4.72c-.45 1.026-1.746 1.215-2.69.802a2.48 2.48 0 0 1-.457-.261c-.669-.482-1.169-1.367-.778-2.26l2.067-4.72c.384-.877 1.41-1.127 2.202-.99Z" />
  <path fill="#000"
        d="M92.722 51.33a.906.906 0 0 1-.733-1.438c.444-.614 1.58-2.077 2.522-2.4.877-.3 3.477-.148 4.252-.094a.906.906 0 1 1-.125 1.809c-1.407-.098-3.165-.12-3.54.001-.273.11-1.058.943-1.642 1.748a.905.905 0 0 1-.734.374Z" />
  <path fill="#000"
        d="M102.099 50.383c-.867 0-1.772-.052-2.292-.088a.906.906 0 1 1 .125-1.809c1.407.098 3.165.12 3.54-.001.275-.11 1.059-.944 1.642-1.748a.907.907 0 0 1 1.468 1.064c-.445.614-1.581 2.076-2.523 2.4-.407.139-1.168.182-1.96.182Z" />
  <g clip-path="url(#b)">
    <path fill="#000"
          d="M13.983 55.353a.271.271 0 0 0-.153-.155l-1.18-.477a1.009 1.009 0 0 0-.736-.783l-.064-.734a.271.271 0 0 0-.47-.158l-.304.334-.187-.656a.271.271 0 0 0-.516-.017l-1.4 3.86-5.179.242h-.006a2.717 2.717 0 0 1-2.565-1.449.271.271 0 1 0-.48.252 3.261 3.261 0 0 0 2.108 1.65 2.381 2.381 0 0 0-.095.09c-.34.335-.747.948-.806 1.99l-1.173.515a.271.271 0 0 0-.147.158l-.614 1.739a.271.271 0 0 0 .12.325l.295.17a.27.27 0 0 0 .39-.144l.437-1.226 1.054-.087-.32.435a.27.27 0 0 0-.049.21l.335 1.813a.271.271 0 0 0 .266.222h.341a.27.27 0 0 0 .267-.32l-.233-1.28 2.262-1.565c.007-.005-.007.005 0 0a2 2 0 0 0 .48-.582c1.14.2 2.73.484 3.757.65.014.007-.015-.003 0 0l2.126 2.907a.27.27 0 0 0 .343.082l.25-.129a.271.271 0 0 0 .116-.365l-1.102-2.14 1.13.23-.028.39c-.007.1.042.195.126.249l.166.105a.271.271 0 0 0 .396-.127l.388-.95a.27.27 0 0 0-.166-.36l-2.04-.702.608-2.81c.114.019.228.029.343.029.794 0 1.52-.465 1.897-1.213a.271.271 0 0 0 .012-.218Z" />
  </g>
  <defs>
    <clipPath id="a">
      <path fill="#fff"
            d="M303 0h64v64h-64z" />
    </clipPath>
    <clipPath id="b">
      <path fill="#fff"
            d="M0 51h14v14H0z" />
    </clipPath>
  </defs>
</svg>
