<svg xmlns="http://www.w3.org/2000/svg"
     width="116"
     height="116"
     fill="none"
     viewBox="0 0 116 116">
  <path fill="#000"
        fill-opacity=".03"
        d="m43.5 72.5 10.875-10.875h14.5c5.996 0 10.875-4.88 10.875-10.875V18.125c0-5.996-4.88-10.875-10.875-10.875h-50.75c-5.996 0-10.875 4.88-10.875 10.875V50.75c0 5.996 4.88 10.875 10.875 10.875h14.5L43.5 72.5ZM30.812 25.375h25.375a1.813 1.813 0 0 1 0 3.625H30.814a1.813 1.813 0 0 1 0-3.625Zm0 7.25h25.375a1.813 1.813 0 0 1 0 3.625H30.814a1.813 1.813 0 0 1 0-3.625Zm0 10.875a1.813 1.813 0 0 1 0-3.625h25.375a1.813 1.813 0 0 1 0 3.625H30.814Zm67.063 0h-14.5v7.25c0 7.997-6.503 14.5-14.5 14.5h-13l-9.812 9.813a3.615 3.615 0 0 1-2.563 1.062 3.615 3.615 0 0 1-2.563-1.062l-4.687-4.687V87c0 6.007 4.868 10.875 10.875 10.875h14.5l8.312 8.312a3.62 3.62 0 0 0 5.126 0l8.312-8.312h14.5c6.007 0 10.875-4.868 10.875-10.875V54.375c0-6.007-4.868-10.875-10.875-10.875ZM85.187 79.75H59.814a1.813 1.813 0 0 1 0-3.625h25.374a1.813 1.813 0 0 1 0 3.625Zm0-7.25H59.814a1.813 1.813 0 0 1 0-3.625h25.374a1.813 1.813 0 0 1 0 3.625Z" />
</svg>
