<svg xmlns="http://www.w3.org/2000/svg"
     width="1403"
     height="319"
     fill="none"
     viewBox="0 0 1403 319">
  <g clip-path="url(#a)">
    <path fill="#000"
          fill-opacity=".06"
          fill-rule="evenodd"
          d="M169.841 157.225c-5.679-2.222-11.845-3.485-18.316-3.485a3.154 3.154 0 0 1-3.157-3.157 3.154 3.154 0 0 1 3.157-3.156c5.812 0 11.386.937 16.661 2.563-7.216-26.911-31.668-46.758-60.856-46.758-23.777 0-44.444 13.17-55.212 32.59a31.542 31.542 0 0 1 12.744 6.718s3.732 3.245 1.367 5.61c-2.364 2.364-5.83-1.146-5.83-1.146a25.12 25.12 0 0 0-12.962-5.657 24.978 24.978 0 0 0-3.242-.234c-13.947 0-25.254 11.308-25.254 25.254 0 3.473.72 6.772 1.995 9.78 5.221-2.191 10.922-3.466 16.945-3.466a3.154 3.154 0 0 1 3.157 3.157 3.154 3.154 0 0 1-3.157 3.156 37.454 37.454 0 0 0-14.123 2.775c-.388.158-.767.332-1.15.499-1.227.549-2.436 1.124-3.592 1.793C7.658 190.596 0 202.831 0 216.876c0 20.92 16.961 37.881 37.881 37.881h113.644c27.896 0 50.508-22.615 50.508-50.508 0-21.422-13.362-39.681-32.192-47.024Zm-97.235 62.807a3.154 3.154 0 0 1-3.157-3.156c0-8.719-3.532-16.611-9.246-22.322 0 0-3.135-2.882-.767-5.199 2.367-2.317 5.23.735 5.23.735 6.854 6.857 11.097 16.327 11.097 26.786a3.154 3.154 0 0 1-3.157 3.156Zm107.33-12.627a3.154 3.154 0 0 1-3.157-3.156c0-13.947-11.307-25.255-25.254-25.255a3.154 3.154 0 0 1-3.157-3.156 3.154 3.154 0 0 1 3.157-3.157c17.432 0 31.568 14.133 31.568 31.568a3.154 3.154 0 0 1-3.157 3.156Z"
          clip-rule="evenodd" />
  </g>
  <g clip-path="url(#b)">
    <path fill="#000"
          fill-opacity=".06"
          fill-rule="evenodd"
          d="M661.707 157.403a29.305 29.305 0 0 0-10.711-2.038 1.844 1.844 0 0 1-1.846-1.846c0-1.021.825-1.846 1.846-1.846 3.399 0 6.659.548 9.744 1.499-4.22-15.738-18.52-27.344-35.589-27.344-13.904 0-25.99 7.702-32.287 19.059a18.427 18.427 0 0 1 7.452 3.928s2.182 1.898.8 3.28c-1.383 1.383-3.41-.67-3.41-.67a14.702 14.702 0 0 0-7.58-3.308 14.663 14.663 0 0 0-1.896-.136c-8.156 0-14.768 6.612-14.768 14.768 0 2.031.42 3.96 1.166 5.719 3.054-1.281 6.388-2.027 9.91-2.027 1.021 0 1.846.825 1.846 1.846a1.844 1.844 0 0 1-1.846 1.846c-2.926 0-5.706.587-8.259 1.623-.227.092-.449.194-.672.292-.718.321-1.425.657-2.101 1.048-6.642 3.822-11.121 10.977-11.121 19.19 0 12.234 9.919 22.153 22.153 22.153h66.458c16.314 0 29.537-13.225 29.537-29.537 0-12.528-7.814-23.205-18.826-27.499Zm-56.862 36.729a1.844 1.844 0 0 1-1.846-1.846c0-5.099-2.066-9.714-5.408-13.053 0 0-1.833-1.686-.448-3.041 1.384-1.355 3.059.43 3.059.43a22.091 22.091 0 0 1 6.489 15.664 1.844 1.844 0 0 1-1.846 1.846Zm62.766-7.384a1.844 1.844 0 0 1-1.846-1.846c0-8.156-6.613-14.769-14.769-14.769a1.844 1.844 0 0 1-1.846-1.846c0-1.021.825-1.846 1.846-1.846 10.194 0 18.461 8.265 18.461 18.461a1.844 1.844 0 0 1-1.846 1.846Z"
          clip-rule="evenodd" />
  </g>
  <g clip-path="url(#c)">
    <path fill="#000"
          fill-opacity=".06"
          fill-rule="evenodd"
          d="M835.385 247.195a29.326 29.326 0 0 0-10.711-2.038 1.844 1.844 0 0 1-1.846-1.846c0-1.021.825-1.846 1.846-1.846 3.399 0 6.659.549 9.744 1.499-4.22-15.737-18.52-27.344-35.589-27.344-13.904 0-25.991 7.702-32.287 19.059a18.448 18.448 0 0 1 7.452 3.929s2.182 1.897.799 3.28c-1.382 1.383-3.409-.67-3.409-.67a14.686 14.686 0 0 0-7.58-3.308 14.663 14.663 0 0 0-1.896-.137c-8.156 0-14.769 6.613-14.769 14.769 0 2.03.421 3.959 1.167 5.719 3.053-1.281 6.387-2.027 9.91-2.027 1.021 0 1.846.825 1.846 1.846a1.844 1.844 0 0 1-1.846 1.846c-2.926 0-5.706.587-8.26 1.623-.227.092-.448.193-.671.291-.719.322-1.426.657-2.101 1.049-6.642 3.821-11.121 10.977-11.121 19.19 0 12.234 9.919 22.152 22.153 22.152h66.458c16.314 0 29.537-13.225 29.537-29.537 0-12.527-7.814-23.205-18.826-27.499Zm-56.863 36.73a1.845 1.845 0 0 1-1.846-1.846c0-5.099-2.065-9.714-5.407-13.054 0 0-1.833-1.685-.448-3.04 1.384-1.355 3.059.43 3.059.43a22.093 22.093 0 0 1 6.489 15.664 1.845 1.845 0 0 1-1.847 1.846Zm62.767-7.384a1.845 1.845 0 0 1-1.846-1.847c0-8.155-6.613-14.768-14.769-14.768a1.844 1.844 0 0 1-1.846-1.846c0-1.021.825-1.846 1.846-1.846 10.194 0 18.461 8.265 18.461 18.46a1.845 1.845 0 0 1-1.846 1.847Z"
          clip-rule="evenodd" />
  </g>
  <g clip-path="url(#d)">
    <path fill="#000"
          fill-opacity=".06"
          fill-rule="evenodd"
          d="M1366.84 144.301c-6.28-2.457-13.09-3.852-20.25-3.852-1.93 0-3.49-1.56-3.49-3.489 0-1.93 1.56-3.49 3.49-3.49 6.43 0 12.59 1.037 18.42 2.834-7.98-29.745-35-51.68-67.26-51.68-26.28 0-49.13 14.556-61.03 36.021a34.84 34.84 0 0 1 14.09 7.424s4.12 3.587 1.51 6.2c-2.61 2.614-6.45-1.266-6.45-1.266a27.72 27.72 0 0 0-14.32-6.252 27.6 27.6 0 0 0-3.58-.259c-15.42 0-27.92 12.498-27.92 27.913 0 3.838.8 7.484 2.21 10.809 5.77-2.421 12.07-3.831 18.73-3.831 1.93 0 3.49 1.56 3.49 3.489a3.487 3.487 0 0 1-3.49 3.489c-5.53 0-10.79 1.11-15.61 3.067-.43.174-.85.366-1.27.551-1.36.607-2.7 1.242-3.97 1.982-12.56 7.222-21.02 20.746-21.02 36.269 0 23.122 18.75 41.869 41.87 41.869h125.6c30.84 0 55.83-24.996 55.83-55.825 0-23.677-14.77-43.858-35.58-51.973Zm-107.47 69.418c-1.93 0-3.49-1.56-3.49-3.489 0-9.637-3.91-18.36-10.22-24.671 0 0-3.47-3.186-.85-5.747s5.78.813 5.78.813c7.58 7.578 12.27 18.046 12.27 29.605a3.487 3.487 0 0 1-3.49 3.489ZM1378 199.763c-1.93 0-3.49-1.56-3.49-3.489 0-15.415-12.5-27.913-27.92-27.913-1.93 0-3.49-1.56-3.49-3.489a3.487 3.487 0 0 1 3.49-3.489c19.27 0 34.89 15.621 34.89 34.891a3.484 3.484 0 0 1-3.48 3.489Z"
          clip-rule="evenodd" />
  </g>
  <g clip-path="url(#e)">
    <path fill="#000"
          fill-opacity=".06"
          fill-rule="evenodd"
          d="M387.52 39.29c-27.894 0-50.508 22.614-50.508 50.508 0 27.895 22.614 50.509 50.508 50.509 27.895 0 50.509-22.614 50.509-50.509 0-27.894-22.614-50.508-50.509-50.508Zm30.867 53.314a2.803 2.803 0 0 1-2.806-2.806c0-15.497-12.566-28.06-28.061-28.06a2.804 2.804 0 0 1-2.806-2.806 2.804 2.804 0 0 1 2.806-2.806c18.596 0 33.673 15.077 33.673 33.672a2.804 2.804 0 0 1-2.806 2.806Zm56.126-5.617h-28.061a2.804 2.804 0 0 0-2.806 2.806 2.804 2.804 0 0 0 2.806 2.806h28.061a2.804 2.804 0 0 0 2.806-2.806 2.804 2.804 0 0 0-2.806-2.806Zm-144.631 15.348-10.84 2.905a2.807 2.807 0 1 0 1.454 5.421l10.839-2.904a2.805 2.805 0 1 0-1.453-5.422Zm106.244-40.603a2.806 2.806 0 0 0 3.836 1.027l24.3-14.03a2.799 2.799 0 0 0 1.024-3.833 2.797 2.797 0 0 0-3.83-1.024l-24.3 14.03a2.805 2.805 0 0 0-1.03 3.83Zm-88.283 67.746a2.808 2.808 0 0 0-3.967 0l-7.936 7.936a2.806 2.806 0 0 0 .003 3.97 2.8 2.8 0 0 0 3.965-.003l7.935-7.935a2.804 2.804 0 0 0 0-3.968Zm67.743-88.286a2.808 2.808 0 0 0 3.836-1.027l14.03-24.3a2.803 2.803 0 0 0-1.03-3.836 2.804 2.804 0 0 0-3.83 1.027L414.565 37.36a2.8 2.8 0 0 0 1.021 3.833Zm-42.584 102.807a2.816 2.816 0 0 0-3.437 1.984l-2.905 10.84a2.812 2.812 0 0 0 1.99 3.44 2.799 2.799 0 0 0 3.432-1.987l2.904-10.839c.407-1.49-.483-3.031-1.984-3.438Zm14.524-110.327a2.807 2.807 0 0 0 2.812-2.806V2.806A2.805 2.805 0 0 0 387.526 0a2.806 2.806 0 0 0-2.803 2.806l.003 28.06a2.802 2.802 0 0 0 2.8 2.806Zm17.964 112.311a2.804 2.804 0 0 0-3.437-1.984 2.813 2.813 0 0 0-1.984 3.438l2.904 10.839a2.81 2.81 0 0 0 3.443 1.984 2.796 2.796 0 0 0 1.978-3.437l-2.904-10.84ZM355.641 40.16a2.797 2.797 0 0 0 3.825 1.03 2.803 2.803 0 0 0 1.032-3.836l-14.03-24.3a2.808 2.808 0 0 0-4.863 2.806l14.036 24.3Zm75.541 89.315a2.809 2.809 0 0 0-3.968 0 2.812 2.812 0 0 0 0 3.968l7.936 7.935a2.806 2.806 0 0 0 3.97-.002 2.797 2.797 0 0 0-.003-3.965l-7.935-7.936ZM310.793 48.727l24.305 14.027a2.798 2.798 0 0 0 3.825-1.022 2.804 2.804 0 0 0-1.021-3.835l-24.303-14.03a2.804 2.804 0 0 0-3.836 1.03 2.81 2.81 0 0 0 1.03 3.83Zm132.929 59.024 10.84 2.904a2.804 2.804 0 0 0 3.437-1.989 2.799 2.799 0 0 0-1.984-3.432l-10.839-2.904a2.806 2.806 0 1 0-1.454 5.421ZM331.406 89.793a2.804 2.804 0 0 0-2.801-2.812l-28.066.006a2.802 2.802 0 0 0-2.806 2.806 2.811 2.811 0 0 0 2.809 2.806l28.063-.006a2.799 2.799 0 0 0 2.801-2.8Zm113.77-12.546 10.839-2.904a2.805 2.805 0 0 0 1.981-3.443 2.8 2.8 0 0 0-3.434-1.979l-10.84 2.905a2.804 2.804 0 0 0-1.984 3.437c.396 1.498 1.942 2.38 3.438 1.984Zm-106.25 40.606a2.8 2.8 0 0 0-3.831-1.033l-24.302 14.036a2.803 2.803 0 0 0-1.03 3.833 2.812 2.812 0 0 0 3.836 1.024l24.3-14.036a2.796 2.796 0 0 0 1.027-3.824Zm88.288-67.749c1.092 1.1 2.868 1.089 3.968 0l7.935-7.935a2.801 2.801 0 0 0-.005-3.97 2.796 2.796 0 0 0-3.962.002l-7.936 7.936a2.803 2.803 0 0 0 0 3.967Zm-67.748 88.289a2.802 2.802 0 0 0-3.83 1.021l-14.031 24.309a2.802 2.802 0 0 0 1.025 3.83 2.817 2.817 0 0 0 3.835-1.03l14.025-24.306a2.793 2.793 0 0 0-1.024-3.824Zm42.59-102.813c1.49.407 3.024-.493 3.437-1.983l2.904-10.84a2.808 2.808 0 0 0-1.989-3.438 2.798 2.798 0 0 0-3.432 1.984l-2.904 10.84c-.413 1.49.488 3.033 1.984 3.437Zm-14.53 110.333a2.8 2.8 0 0 0-2.806 2.8l.006 28.072c0 1.543 1.243 2.8 2.8 2.8a2.811 2.811 0 0 0 2.809-2.806l-.009-28.066c0-1.546-1.243-2.8-2.8-2.8ZM369.567 33.596c.39 1.496 1.939 2.386 3.438 1.984 1.493-.395 2.374-1.939 1.984-3.437l-2.905-10.84a2.804 2.804 0 0 0-3.443-1.98 2.796 2.796 0 0 0-1.978 3.434l2.904 10.84Zm49.844 105.827a2.788 2.788 0 0 0-3.825-1.025 2.803 2.803 0 0 0-1.03 3.828l14.042 24.303a2.79 2.79 0 0 0 3.824 1.027 2.812 2.812 0 0 0 1.03-3.836l-14.041-24.297Zm-75.538-89.319c1.086 1.106 2.87 1.095 3.967 0 1.098-1.088 1.086-2.865 0-3.967l-7.935-7.936a2.802 2.802 0 0 0-3.971.006 2.795 2.795 0 0 0 .003 3.962l7.936 7.935Zm120.392 80.749-24.309-14.022a2.788 2.788 0 0 0-3.824 1.027 2.802 2.802 0 0 0 1.021 3.828l24.312 14.027a2.794 2.794 0 0 0 3.824-1.024 2.816 2.816 0 0 0-1.024-3.836ZM331.333 71.831l-10.843-2.907a2.802 2.802 0 0 0-3.437 1.987 2.804 2.804 0 0 0 1.984 3.437l10.839 2.902c1.49.41 3.034-.491 3.438-1.984.407-1.487-.491-3.022-1.981-3.435Z"
          clip-rule="evenodd" />
  </g>
  <g clip-path="url(#f)">
    <path fill="#000"
          fill-opacity=".06"
          d="M977.045 161.897c.776-.011 1.04-.304.884-1.028a2.402 2.402 0 0 0-.307-.755c-.185-.292-.429-.546-.653-.823.788.112.888.088 1.385-.315l.004-.581c-.611-1.031-1.593-1.461-2.712-1.654-.936-.163-1.882-.278-2.814-.462-1.161-.228-2.177-.725-3.125-1.349a2.332 2.332 0 0 0-.122-.101c-1.182-.895-2.413-2.068-3.46-3.277.323-.111.64-.229.943-.375.629-.304.637-.533.166-1.116.561-.151 1.103-.275 1.631-.444a10.28 10.28 0 0 0 1.39-.541c.323-.157.608-.421.549-.833-.064-.445-.43-.614-.811-.737-.098-.031-.205-.035-.369-.061.604-.481 1.181-.891 1.696-1.367.385-.357.754-.762 1.02-1.211.605-1.023.313-1.552-.851-1.664.515-.673 1.062-1.323 1.535-2.024a8.765 8.765 0 0 0 .882-1.659c.375-.946.164-1.187-.804-1.038.264-.542.545-1.076.784-1.627.108-.247.153-.527.195-.797.124-.781-.131-1.008-.899-.861l.493-1.916c.015-.062.019-.128.024-.192.047-.704-.122-.84-.784-.623.035-.899.433-1.814-.119-2.685l-.484-.003c-.777.611-1.163 1.48-1.524 2.355-.088.213-.181.422-.278.627a1.213 1.213 0 0 0-.302.573l-.009.042a14.027 14.027 0 0 1-1.428 2.142l-.342.338a.228.228 0 0 0-.071.154c-1.167 1.33-2.557 2.46-4.073 3.481-.361.243-.705.511-1.062.761-1.662 1.16-2.015 2.903-2.137 4.758a17.302 17.302 0 0 1-.222 1.873 4.583 4.583 0 0 1-.136.562l-.093-2.698a6.867 6.867 0 0 0-.114-1.822c-.048-.231-.226-.436-.344-.654l-.592.357c-.066-.43-.114-.917-.222-1.391a5.938 5.938 0 0 0-.395-1.188c-.344-.741-.68-.785-1.211-.285-.231-.733-.463-1.508-.724-2.273-.066-.192-.209-.363-.34-.525-.333-.414-.517-.445-.941-.22-.278-.515-.51-1.06-.843-1.536-.492-.705-.915-.734-1.563-.184-.422-1.021-1.039-1.902-1.924-2.553-.448-.33-.96-.586-1.47-.814-.235-.105-.541-.102-.805-.069-.164.02-.391.161-.438.299-.047.135.069.357.168.503.106.157.268.279.419.399 1.816 1.444 2.68 3.451 3.18 5.616.307 1.328.411 2.705.563 4.065.087.787.392 1.458.878 2.059.768.95 1.66 1.814 2.054 3.022a.132.132 0 0 0 .051.061c.007.102.027.203.063.303l.027.068a14.384 14.384 0 0 0-1.01-.467c-.7-.282-1.421-.534-2.156-.698-2.149-.479-4.066 1.137-4.022 3.335.008.425-.043.851-.071 1.347.024.68-.486 1.127-.26 1.096.227-.031.697-.448.881-.534.312-.26.599-.357 1.048-.138a2.171 2.171 0 0 0 1.966-.052l.556.162c.014.02.031.037.051.05 1.419.87 2.347 2.24 3.49 3.393.927.935 1.859 1.89 2.911 2.674 2.074 1.545 4.308 1.541 6.492.137.108-.069.213-.142.317-.216.18.103.357.212.529.328.121.081.24.165.358.25a.588.588 0 0 0 .098.132c.144.133.279.27.407.409.059.107.129.208.214.302.225.249.442.541.634.853.685 1.207.899 2.577.708 4.093-.043.343-.012.717.079 1.051.2.736.808.878 1.358.348l.046-.046c.026.002.052.004.077.004a1.47 1.47 0 0 0 .332-.036l.482.834.678.003c.551-.324 1.024-.719 1.238-1.36.079.03.162.052.245.069.265.286.536.52.959.384.543-.174.709-.668.816-1.166.045-.209.052-.428.066-.656.079-.002.157-.01.234-.023.305.23.625.42 1.027.21.338-.176.529-.731.424-1.252-.063-.307-.177-.604-.269-.907Z" />
  </g>
  <g clip-path="url(#g)">
    <path fill="#000"
          fill-opacity=".06"
          d="M1037.3 190.253c.78-.011 1.04-.304.88-1.028a2.288 2.288 0 0 0-.3-.755c-.19-.292-.43-.546-.66-.824.79.112.89.089 1.39-.314v-.581c-.61-1.031-1.59-1.461-2.71-1.655-.93-.162-1.88-.278-2.81-.461-1.16-.229-2.18-.726-3.13-1.35l-.12-.101c-1.18-.894-2.41-2.067-3.46-3.276.32-.111.64-.229.94-.376.63-.303.64-.533.17-1.116.56-.15 1.1-.274 1.63-.443.47-.152.94-.324 1.39-.541.32-.157.61-.421.55-.834-.06-.444-.43-.614-.81-.736-.1-.031-.21-.035-.37-.061.6-.481 1.18-.891 1.7-1.368.38-.356.75-.762 1.02-1.211.6-1.022.31-1.552-.86-1.663.52-.673 1.07-1.324 1.54-2.025a8.7 8.7 0 0 0 .88-1.659c.38-.945.17-1.186-.8-1.037.26-.543.54-1.076.78-1.627.11-.248.15-.527.2-.797.12-.781-.13-1.008-.9-.861.16-.629.33-1.272.49-1.917.02-.062.02-.127.02-.192.05-.704-.12-.839-.78-.622.04-.9.43-1.815-.12-2.685l-.48-.003c-.78.61-1.17 1.48-1.53 2.355-.08.213-.18.421-.27.626-.15.159-.26.351-.31.573 0 .014 0 .028-.01.042-.41.77-.89 1.48-1.42 2.142-.12.113-.23.226-.35.339a.334.334 0 0 0-.07.154c-1.16 1.329-2.55 2.46-4.07 3.481-.36.243-.7.511-1.06.76-1.66 1.161-2.02 2.903-2.14 4.759-.04.626-.11 1.254-.22 1.872-.04.202-.08.39-.14.562l-.09-2.698c.04-.606.01-1.213-.11-1.821-.05-.232-.23-.437-.35-.654-.19.117-.39.235-.59.357-.07-.43-.11-.918-.22-1.391a5.566 5.566 0 0 0-.4-1.189c-.34-.74-.68-.785-1.21-.285-.23-.732-.46-1.507-.72-2.273-.07-.191-.21-.363-.34-.525-.33-.413-.52-.444-.94-.219-.28-.515-.51-1.061-.84-1.536-.5-.705-.92-.734-1.57-.184-.42-1.022-1.04-1.903-1.92-2.554-.45-.329-.96-.586-1.47-.814-.24-.104-.54-.102-.81-.068-.16.02-.39.16-.44.299-.04.135.07.356.17.503.11.156.27.279.42.399 1.82 1.444 2.68 3.45 3.18 5.616.31 1.328.41 2.705.56 4.065.09.786.4 1.458.88 2.059.77.95 1.66 1.814 2.06 3.022 0 .023.02.043.05.061a.805.805 0 0 0 .09.371c-.34-.165-.67-.329-1.01-.467-.7-.282-1.42-.534-2.16-.698-2.15-.479-4.06 1.136-4.02 3.334.01.425-.04.851-.07 1.348.02.679-.49 1.127-.26 1.096.23-.031.7-.449.88-.534.31-.26.6-.357 1.05-.139.65.319 1.4.255 1.96-.051l.56.162c.01.02.03.037.05.049 1.42.87 2.35 2.241 3.49 3.393.93.935 1.86 1.891 2.91 2.675 2.08 1.545 4.31 1.541 6.49.136.11-.069.22-.142.32-.216.18.104.36.212.53.329.12.081.24.164.36.25.03.048.06.095.1.131.14.134.27.271.4.41.06.106.13.208.22.302.22.249.44.54.63.852.69 1.207.9 2.577.71 4.094-.04.343-.01.716.08 1.051.2.736.81.878 1.36.348.01-.015.03-.031.04-.046.03.001.05.004.08.004.12.001.23-.013.33-.036l.48.833.68.004c.55-.325 1.02-.719 1.24-1.36.08.03.16.052.24.068.27.287.54.52.96.385.55-.175.71-.669.82-1.167.04-.209.05-.427.07-.656.07-.002.15-.009.23-.023.3.231.62.42 1.03.211.33-.176.52-.731.42-1.252-.06-.308-.18-.605-.27-.907Z" />
  </g>
  <defs>
    <clipPath id="a">
      <path fill="#fff"
            d="M0 77.978h202.033v202.033H0z" />
    </clipPath>
    <clipPath id="b">
      <path fill="#fff"
            d="M562.385 111.059h118.148v118.148H562.385z" />
    </clipPath>
    <clipPath id="c">
      <path fill="#fff"
            d="M736.063 200.852h118.148V319H736.063z" />
    </clipPath>
    <clipPath id="d">
      <path fill="#fff"
            d="M1179.12 56.711h223.3v223.3h-223.3z" />
    </clipPath>
    <clipPath id="e">
      <path fill="#fff"
            d="M297.733 0h179.585v179.585H297.733z" />
    </clipPath>
    <clipPath id="f">
      <path fill="#fff"
            d="m958.886 115.785 34.74 21.971-21.971 34.74-34.74-21.97z" />
    </clipPath>
    <clipPath id="g">
      <path fill="#fff"
            d="m1019.14 144.141 34.74 21.972-21.971 34.74-34.74-21.971z" />
    </clipPath>
  </defs>
</svg>
