<svg xmlns="http://www.w3.org/2000/svg"
     width="173"
     height="58"
     fill="none"
     viewBox="0 0 173 58">
  <path fill="#231F20"
        d="M29.52 31.058A9.97 9.97 0 0 0 30 28c0-5.523-4.477-10-10-10s-10 4.477-10 10c0 1.067.17 2.094.48 3.058-3.914 1.356-6.73 5.066-6.73 9.442 0 5.523 4.477 10 10 10a9.933 9.933 0 0 0 5.8-1.869l-5.006-5.006h-2.669a.624.624 0 1 1 0-1.25h2.5v-2.5a.624.624 0 1 1 1.25 0v3.063l3.75 3.748v-7.801l-2.313-2.313c-.244-.244-.217-.612.028-.857.244-.244.584-.3.828-.056L20 37.74l2.056-2.056a.636.636 0 0 1 .893-.01.625.625 0 0 1 0 .885l-2.324 2.324v7.803l3.75-3.75v-3.062a.624.624 0 1 1 1.25 0v2.5h2.5a.624.624 0 1 1 0 1.25h-2.669L20.45 48.63a9.935 9.935 0 0 0 5.8 1.869c5.523 0 10-4.477 10-10 0-4.376-2.816-8.086-6.73-9.442Z" />
  <path fill="#231F20"
        d="M17.5 51.1v6.275c0 .346.28.625.625.625h3.75c.346 0 .625-.28.625-.625v-6.274a11.203 11.203 0 0 1-2.5-1.248c-.77.516-1.611.933-2.5 1.248Zm91.303-32.166c.45-1.398.697-2.887.697-4.434C109.5 6.492 103.009 0 95 0c-8.008 0-14.5 6.492-14.5 14.5 0 1.547.247 3.036.697 4.434-5.677 1.966-9.76 7.345-9.76 13.691 0 8.008 6.492 14.5 14.5 14.5a14.4 14.4 0 0 0 8.41-2.71l-7.259-7.259h-3.87a.905.905 0 1 1 0-1.812h3.626v-3.625a.905.905 0 1 1 1.812 0v4.441l5.438 5.435V30.283L90.74 26.93c-.355-.354-.316-.888.04-1.243.354-.355.846-.435 1.2-.082l3.02 3.02 2.982-2.982a.923.923 0 0 1 1.295-.013.906.906 0 0 1-.001 1.282l-3.37 3.37v11.314l5.438-5.438v-4.44a.905.905 0 1 1 1.812 0v3.626h3.625a.906.906 0 1 1 0 1.812h-3.869l-7.26 7.26a14.405 14.405 0 0 0 8.41 2.709c8.009 0 14.5-6.492 14.5-14.5 0-6.346-4.082-11.725-9.759-13.69Z" />
  <path fill="#231F20"
        d="M91.375 47.996v9.098c0 .5.405.906.906.906h5.438a.905.905 0 0 0 .906-.906v-9.098A16.25 16.25 0 0 1 95 46.187a16.25 16.25 0 0 1-3.625 1.809ZM58.664 39.14a7 7 0 1 0-13.327 0 6.997 6.997 0 0 0 2.288 13.61 6.954 6.954 0 0 0 4.06-1.308l-3.504-3.505h-1.868a.437.437 0 1 1 0-.874h1.75v-1.75a.437.437 0 1 1 .874 0v2.144l2.626 2.623v-5.46L49.943 43c-.17-.17-.151-.428.02-.6.171-.17.409-.21.58-.039L52 43.82l1.44-1.44a.445.445 0 0 1 .625-.006.44.44 0 0 1 0 .619l-1.627 1.627v5.462l2.624-2.626v-2.142a.437.437 0 1 1 .876 0v1.75h1.75a.437.437 0 1 1 0 .874h-1.869l-3.504 3.505a6.955 6.955 0 0 0 4.06 1.308 6.997 6.997 0 0 0 2.289-13.61Z" />
  <path fill="#231F20"
        d="M50.25 53.17v4.393c0 .241.196.437.438.437h2.624a.437.437 0 0 0 .438-.437V53.17a7.844 7.844 0 0 1-1.75-.873 7.844 7.844 0 0 1-1.75.873Zm87.414-14.03a7 7 0 1 0-13.328 0 6.997 6.997 0 0 0 2.289 13.61 6.954 6.954 0 0 0 4.06-1.308l-3.504-3.505h-1.869a.437.437 0 0 1 0-.874h1.75v-1.75a.438.438 0 0 1 .876 0v2.144l2.624 2.623v-5.46L128.944 43c-.171-.17-.153-.428.019-.6.171-.17.409-.21.579-.039L131 43.82l1.439-1.44a.446.446 0 0 1 .626-.006c.171.17.17.448-.001.619l-1.626 1.627v5.462l2.624-2.626v-2.142a.438.438 0 0 1 .876 0v1.75h1.75a.437.437 0 0 1 0 .874h-1.869l-3.504 3.505a6.954 6.954 0 0 0 4.06 1.308 6.997 6.997 0 0 0 2.289-13.61Z" />
  <path fill="#231F20"
        d="M129.25 53.17v4.393c0 .241.196.437.438.437h2.624a.438.438 0 0 0 .438-.437V53.17a7.846 7.846 0 0 1-1.75-.873 7.846 7.846 0 0 1-1.75.873Zm36.414-14.03a7 7 0 1 0-13.328 0 6.997 6.997 0 0 0 2.289 13.61 6.954 6.954 0 0 0 4.06-1.308l-3.504-3.505h-1.869a.437.437 0 0 1 0-.874h1.75v-1.75a.438.438 0 0 1 .876 0v2.144l2.624 2.623v-5.46L156.944 43c-.171-.17-.153-.428.019-.6.171-.17.409-.21.579-.039L159 43.82l1.439-1.44a.446.446 0 0 1 .626-.006c.171.17.17.448-.001.619l-1.626 1.627v5.462l2.624-2.626v-2.142a.438.438 0 0 1 .876 0v1.75h1.75a.437.437 0 0 1 0 .874h-1.869l-3.504 3.505a6.954 6.954 0 0 0 4.06 1.308 6.997 6.997 0 0 0 2.289-13.61Z" />
  <path fill="#231F20"
        d="M157.25 53.17v4.393c0 .241.196.437.438.437h2.624a.438.438 0 0 0 .438-.437V53.17a7.846 7.846 0 0 1-1.75-.873 7.846 7.846 0 0 1-1.75.873Z" />
</svg>
